Coordinates
version=1
nRows=19
nColumns=63
inDegrees=yes

Units are S.I. units (second, meters, Newtons, ...)
If the header above contains a line with 'inDegrees', this indicates whether rotational values are in degrees (yes) or radians (no).

endheader
time	pelvis_tilt	pelvis_list	pelvis_rotation	pelvis_tx	pelvis_ty	pelvis_tz	hip_flexion_r	hip_adduction_r	hip_rotation_r	knee_angle_r	knee_angle_r_beta	ankle_angle_r	subtalar_angle_r	mtp_angle_r	hip_flexion_l	hip_adduction_l	hip_rotation_l	knee_angle_l	knee_angle_l_beta	ankle_angle_l	subtalar_angle_l	mtp_angle_l	L5_S1_Flex_Ext	L5_S1_Lat_Bending	L5_S1_axial_rotation	L4_L5_Flex_Ext	L4_L5_Lat_Bending	L4_L5_axial_rotation	L3_L4_Flex_Ext	L3_L4_Lat_Bending	L3_L4_axial_rotation	L2_L3_Flex_Ext	L2_L3_Lat_Bending	L2_L3_axial_rotation	L1_L2_Flex_Ext	L1_L2_Lat_Bending	L1_L2_axial_rotation	L1_T12_Flex_Ext	L1_T12_Lat_Bending	L1_T12_axial_rotation	Abs_r3	Abs_r2	Abs_r1	Abs_t1	Abs_t2	neck_flexion	neck_bending	neck_rotation	arm_flex_r	arm_add_r	arm_rot_r	elbow_flex_r	pro_sup_r	wrist_flex_r	wrist_dev_r	arm_flex_l	arm_add_l	arm_rot_l	elbow_flex_l	pro_sup_l	wrist_flex_l	wrist_dev_l
0.000000	5.069450	-1.647504	120.432945	0.292063	0.559081	0.920657	4.424499	-0.752236	-26.730369	14.625587	0.255265	29.812138	11.373265	0.000000	3.998549	-0.271048	3.339062	9.869372	0.172253	27.006034	6.335983	0.000000	0.131134	0.450535	-2.342995	0.243529	0.599212	-2.489432	0.215440	1.095431	-2.489432	0.149873	1.095431	-2.050120	0.121771	0.918731	-1.903683	0.074930	0.697879	-1.757246	0.936678	5.096544	-13.031034	0.000000	0.000000	23.166832	2.461810	9.313809	14.835021	-11.469873	42.660532	43.444721	86.544992	19.989962	32.794853	19.386168	-8.358588	52.612899	48.082812	104.623084	21.701253	28.400431
0.025000	5.270557	-2.000114	120.399188	0.293556	0.558865	0.921939	5.448371	-0.851663	-26.584903	15.223622	0.265702	30.345904	11.373350	0.000000	4.715965	-0.239971	2.847333	10.053741	0.175471	27.327211	7.330666	0.000000	0.162394	0.426374	-2.310459	0.301581	0.567077	-2.454862	0.266796	1.036685	-2.454862	0.185600	1.036685	-2.021651	0.150799	0.869461	-1.877248	0.092792	0.660453	-1.732844	1.159961	4.823224	-12.850077	0.000000	0.000000	23.605475	2.795703	8.146635	14.641329	-11.185068	45.292869	45.424487	81.372153	21.497379	31.611937	19.384539	-7.816997	59.072677	47.641915	94.680945	20.108861	28.510682
0.050000	5.458107	-2.285396	120.421616	0.294570	0.558670	0.923089	6.245832	-0.915438	-26.588098	15.635028	0.272883	30.755023	11.488902	0.000000	5.238966	-0.220343	2.713987	10.047054	0.175354	27.481670	7.899568	0.000000	0.188348	0.411022	-2.274259	0.349781	0.546659	-2.416400	0.309437	0.999358	-2.416400	0.215263	0.999358	-1.989977	0.174900	0.838155	-1.847835	0.107622	0.636673	-1.705694	1.345350	4.649560	-12.648746	0.000000	0.000000	23.962853	3.029773	7.183522	14.410965	-11.066120	46.889732	46.919729	78.095048	22.297760	30.046117	19.108850	-7.452633	63.062097	47.404722	86.415674	18.504143	28.132204
0.075000	5.630149	-2.508460	120.488167	0.295161	0.558490	0.924109	6.837728	-0.948545	-26.714945	15.880629	0.277169	31.055130	11.704011	0.000000	5.584717	-0.209782	2.887206	9.872133	0.172301	27.492154	8.095914	0.000000	0.209163	0.403334	-2.234553	0.388436	0.536435	-2.374213	0.343633	0.980667	-2.374213	0.239052	0.980667	-1.955234	0.194229	0.822479	-1.815574	0.119516	0.624765	-1.675915	1.494029	4.562597	-12.427913	0.000000	0.000000	24.244071	3.174311	6.408853	14.150250	-11.091651	47.667100	47.942609	76.408066	22.456976	28.144079	18.591064	-7.247904	64.938485	47.309987	79.678234	16.885272	27.315238
0.100000	5.784732	-2.674416	120.586783	0.295385	0.558318	0.924999	7.244906	-0.955969	-26.940439	15.981248	0.278925	31.261861	12.002766	0.000000	5.770379	-0.205902	3.315167	9.551799	0.166710	27.381406	7.972932	0.000000	0.225004	0.402166	-2.191497	0.417854	0.534881	-2.328466	0.369659	0.977826	-2.328466	0.257157	0.977826	-1.917560	0.208938	0.820097	-1.780592	0.128567	0.622955	-1.643623	1.607179	4.549382	-12.188450	0.000000	0.000000	24.454234	3.239607	5.807010	13.865504	-11.240285	47.840947	48.505289	76.005599	22.040901	25.952507	17.863146	-7.185214	65.059167	47.296465	74.319591	15.250424	26.110022
0.125000	5.919904	-2.788375	120.705405	0.295295	0.558148	0.925759	7.488213	-0.942694	-27.239572	15.957708	0.278515	31.390850	12.369256	0.000000	5.813116	-0.206319	3.946052	9.108876	0.158980	27.172168	7.583848	0.000000	0.236037	0.406372	-2.145249	0.438343	0.540474	-2.279327	0.387784	0.988052	-2.279327	0.269766	0.988052	-1.877093	0.219184	0.828673	-1.743015	0.134871	0.629470	-1.608937	1.685985	4.596958	-11.931230	0.000000	0.000000	24.598448	3.235951	5.362374	13.563049	-11.490645	47.627253	48.619930	76.582039	21.115407	23.518088	16.957058	-7.246971	63.781469	47.302910	70.190708	13.597774	24.566795
0.150000	6.033714	-2.855448	120.831973	0.294948	0.557973	0.926390	7.588494	-0.913705	-27.587338	15.830831	0.276300	31.457732	12.787573	0.000000	5.730090	-0.208650	4.728039	8.566184	0.149508	26.887183	6.981890	0.000000	0.242427	0.414806	-2.095964	0.450211	0.551692	-2.226962	0.398283	1.008560	-2.226962	0.277070	1.008560	-1.833969	0.225117	0.845873	-1.702971	0.138523	0.642535	-1.571973	1.731630	4.692371	-11.657123	0.000000	0.000000	24.681818	3.173632	5.059330	13.249205	-11.821352	47.241992	48.298695	77.831777	19.746366	20.887506	15.904764	-7.415579	61.462718	47.268074	67.142551	11.925496	22.735797
0.175000	6.124210	-2.880745	120.954427	0.294398	0.557788	0.926892	7.566596	-0.873986	-27.958730	15.621441	0.272646	31.478142	13.241804	0.000000	5.538465	-0.210510	5.609308	7.946546	0.138693	26.549193	6.220284	0.000000	0.244340	0.426324	-2.043800	0.453764	0.567011	-2.171538	0.401426	1.036565	-2.171538	0.279256	1.036565	-1.788325	0.226894	0.869361	-1.660588	0.139616	0.660377	-1.532850	1.745297	4.822667	-11.367003	0.000000	0.000000	24.709450	3.062942	4.882257	12.930294	-12.211030	46.901144	47.553745	79.449203	17.999651	18.107447	14.738228	-7.673446	58.460240	47.130714	65.026084	10.231766	20.667266
0.200000	6.189441	-2.869376	121.060707	0.293702	0.557584	0.927265	7.443366	-0.828522	-28.328741	15.350361	0.267914	31.467716	13.716040	0.000000	5.255404	-0.209514	6.538039	7.272785	0.126934	26.180941	5.352258	0.000000	0.241942	0.439781	-1.988914	0.449311	0.584909	-2.113221	0.397487	1.069284	-2.113221	0.276516	1.069284	-1.740300	0.224668	0.896801	-1.615992	0.138246	0.681221	-1.491685	1.728169	4.974891	-11.061741	0.000000	0.000000	24.686449	2.914169	4.815539	12.612635	-12.638302	46.820683	46.397242	81.128708	15.941135	15.224595	13.489412	-8.002977	55.131361	46.829581	63.692270	8.514757	18.411442
0.225000	6.227455	-2.826453	121.138755	0.292913	0.557357	0.927510	7.239650	-0.782296	-28.672364	15.038413	0.262470	31.442087	14.194370	0.000000	4.898069	-0.203280	7.462411	6.567723	0.114628	25.805168	4.431039	0.000000	0.235399	0.454031	-1.931462	0.437159	0.603861	-2.052178	0.386737	1.103930	-2.052178	0.269037	1.103930	-1.690029	0.218591	0.925860	-1.569313	0.134507	0.703294	-1.448596	1.681430	5.136087	-10.742210	0.000000	0.000000	24.617921	2.737605	4.843558	12.302551	-13.081790	47.216588	44.841350	82.564685	13.636689	12.285637	12.190282	-8.386578	51.833408	46.303431	62.992076	6.772646	16.018564
0.250000	6.236301	-2.757086	121.176510	0.292088	0.557100	0.927627	6.976295	-0.740294	-28.964593	14.706420	0.256675	31.416892	14.660884	0.000000	4.483625	-0.189422	8.330605	5.854181	0.102175	25.444619	3.509853	0.000000	0.224875	0.467929	-1.871601	0.417616	0.622345	-1.988576	0.369448	1.137722	-1.988576	0.257010	1.137722	-1.637651	0.208819	0.954200	-1.520676	0.128494	0.724821	-1.403700	1.606262	5.293302	-10.409281	0.000000	0.000000	24.508972	2.543538	4.950695	12.006363	-13.520116	48.304835	42.898228	83.451524	11.152187	9.337256	10.872799	-8.806656	48.923708	45.491016	62.776464	5.003607	13.538872
0.275000	6.175184	-2.667891	121.101071	0.291423	0.556803	0.927545	6.687281	-0.737786	-29.070434	14.411601	0.251530	31.435070	15.041454	0.000000	4.021788	-0.134855	8.859756	5.166378	0.090170	25.183208	2.870859	0.000000	0.210077	0.473252	-1.800994	0.390134	0.629425	-1.913556	0.345136	1.150664	-1.913556	0.240097	1.150664	-1.575869	0.195078	0.965055	-1.463307	0.120038	0.733067	-1.350745	1.500560	5.353517	-10.016586	0.000000	0.000000	24.336950	2.367591	4.992315	11.841650	-13.730911	53.008700	40.155595	81.074957	8.700859	6.302517	9.559089	-9.358673	46.467804	44.238959	63.968355	2.873136	10.985120
0.300000	6.057260	-2.549156	120.960837	0.290873	0.556461	0.927270	6.351997	-0.759949	-29.075799	14.130152	0.246618	31.513291	15.408662	0.000000	3.513755	-0.058396	9.235254	4.526736	0.079006	25.005959	2.338930	0.000000	0.188644	0.473118	-1.736183	0.350331	0.629247	-1.844694	0.309924	1.150339	-1.844694	0.215602	1.150339	-1.519160	0.175175	0.964782	-1.410648	0.107791	0.732860	-1.302137	1.347468	5.352005	-9.656127	0.000000	0.000000	24.127941	2.229343	5.133263	11.770961	-13.830064	59.358861	36.856482	77.055549	6.276252	3.378325	8.375678	-9.755441	47.253484	42.060187	63.767921	0.750476	8.289915
0.325000	5.898975	-2.437156	120.721258	0.290525	0.556017	0.926870	6.059047	-0.819663	-28.922939	13.930207	0.243128	31.671389	15.694691	0.000000	3.034522	0.044007	9.343435	3.990238	0.069643	24.936544	1.999201	0.000000	0.164557	0.467445	-1.670489	0.305598	0.621702	-1.774895	0.270350	1.136547	-1.774895	0.188072	1.136547	-1.461678	0.152807	0.953215	-1.357272	0.094028	0.724073	-1.252867	1.175413	5.287837	-9.290760	0.000000	0.000000	23.888710	2.118659	5.332464	11.682375	-13.927509	66.213062	33.366949	71.879052	3.774063	0.668681	7.317906	-10.047713	50.730720	39.163472	62.735973	-1.359962	5.675154
0.350000	5.716693	-2.326160	120.391468	0.290367	0.555502	0.926360	5.809736	-0.899784	-28.638465	13.802950	0.240907	31.908219	15.930104	0.000000	2.583962	0.155914	9.215713	3.543873	0.061852	24.966386	1.841534	0.000000	0.137888	0.458993	-1.603034	0.256072	0.610461	-1.703224	0.226536	1.115995	-1.703224	0.157592	1.115995	-1.402655	0.128043	0.935978	-1.302465	0.078789	0.710980	-1.202276	0.984920	5.192220	-8.915597	0.000000	0.000000	23.638384	1.995617	5.572139	11.554253	-14.045909	73.291093	29.801511	65.741079	1.332304	-1.716307	6.440859	-10.247255	56.877978	35.671596	61.163178	-3.358568	3.456498
0.375000	5.525969	-2.218004	119.982238	0.290378	0.554938	0.925758	5.614539	-0.985173	-28.203715	13.745933	0.239912	32.207912	16.075634	0.000000	2.179635	0.265258	8.844580	3.199178	0.055836	25.096330	1.885554	0.000000	0.109517	0.449943	-1.536374	0.203384	0.598425	-1.632398	0.179925	1.093992	-1.632398	0.125167	1.093992	-1.344327	0.101697	0.917524	-1.248304	0.062578	0.696962	-1.152281	0.782268	5.089848	-8.544853	0.000000	0.000000	23.389182	1.859870	5.867603	11.366840	-14.193081	80.501340	26.265114	58.854206	-0.993138	-3.723400	5.742482	-10.382008	65.223496	31.754452	59.223172	-5.153492	1.711802
0.400000	5.350920	-2.109291	119.515750	0.290505	0.554329	0.925112	5.483479	-1.055861	-27.636324	13.761325	0.240180	32.556274	16.112076	0.000000	1.841203	0.351316	8.240372	2.972943	0.051888	25.338508	2.147957	0.000000	0.080065	0.443531	-1.471708	0.148689	0.589896	-1.563690	0.131539	1.078401	-1.563690	0.091506	1.078401	-1.287745	0.074348	0.904448	-1.195763	0.045749	0.687029	-1.103781	0.571896	5.017309	-8.185200	0.000000	0.000000	23.168761	1.724771	6.231170	11.088912	-14.386576	87.684675	22.899117	51.430603	-3.099510	-5.281102	5.221100	-10.484357	74.950670	27.642497	57.112611	-6.638816	0.371816
0.425000	5.204066	-2.001908	118.982469	0.290737	0.553727	0.924484	5.430792	-1.106212	-26.950843	13.856432	0.241840	32.937395	16.064093	0.000000	1.583953	0.405679	7.413226	2.878609	0.050241	25.674330	2.586798	0.000000	0.050975	0.441164	-1.408643	0.094665	0.586749	-1.496683	0.083746	1.072647	-1.496683	0.058259	1.072647	-1.232562	0.047335	0.899622	-1.144522	0.029127	0.683364	-1.056482	0.364107	4.990540	-7.834448	0.000000	0.000000	22.966544	1.555808	6.626587	10.752374	-14.638941	94.734376	19.759349	43.732369	-4.892734	-6.596234	4.752311	-10.581396	85.014584	23.555241	55.007125	-7.879386	-0.826400
0.450000	5.099995	-1.888832	118.425041	0.291033	0.553157	0.923963	5.452328	-1.128532	-26.229079	14.029338	0.244858	33.336346	15.966968	0.000000	1.413389	0.418429	6.455554	2.917195	0.050915	26.079477	3.134526	0.000000	0.021889	0.443707	-1.349138	0.040649	0.590130	-1.433459	0.035961	1.078828	-1.433459	0.025017	1.078828	-1.180495	0.020326	0.904806	-1.096174	0.012507	0.687301	-1.011853	0.156348	5.019297	-7.503498	0.000000	0.000000	22.793122	1.427289	7.040949	10.350894	-14.943702	101.439701	16.955973	36.052845	-6.288250	-7.725085	4.297039	-10.666777	95.046000	19.632578	52.211138	-9.137936	-1.823878
